<mxfile host="app.diagrams.net" agent="Mozilla/5.0 (Windows NT 10.0; Win64; x64) AppleWebKit/537.36 (KHTML, like Gecko) Chrome/139.0.0.0 Safari/537.36" version="28.1.1">
  <diagram name="Page-1" id="OAxe_pN5reeJmfLujnQW">
    <mxGraphModel dx="646" dy="319" grid="1" gridSize="10" guides="1" tooltips="1" connect="1" arrows="1" fold="1" page="1" pageScale="1" pageWidth="850" pageHeight="1100" math="0" shadow="0">
      <root>
        <mxCell id="0" />
        <mxCell id="1" parent="0" />
        <mxCell id="yzDUC33ExW9YsqvO7kSv-2" value="" style="endArrow=none;html=1;rounded=0;" parent="1" edge="1">
          <mxGeometry width="50" height="50" relative="1" as="geometry">
            <mxPoint x="50" y="220" as="sourcePoint" />
            <mxPoint x="50" y="150" as="targetPoint" />
          </mxGeometry>
        </mxCell>
        <mxCell id="yzDUC33ExW9YsqvO7kSv-7" value="V&lt;font&gt;s&lt;/font&gt;" style="edgeLabel;html=1;align=center;verticalAlign=middle;resizable=0;points=[];fontSize=13;" parent="yzDUC33ExW9YsqvO7kSv-2" vertex="1" connectable="0">
          <mxGeometry x="0.5795" y="2" relative="1" as="geometry">
            <mxPoint y="-21" as="offset" />
          </mxGeometry>
        </mxCell>
        <mxCell id="yzDUC33ExW9YsqvO7kSv-9" value="&lt;font style=&quot;font-size: 13px;&quot;&gt;&amp;nbsp;Substation&lt;/font&gt;" style="edgeLabel;html=1;align=center;verticalAlign=middle;resizable=0;points=[];" parent="yzDUC33ExW9YsqvO7kSv-2" vertex="1" connectable="0">
          <mxGeometry x="-0.6097" y="2" relative="1" as="geometry">
            <mxPoint x="2" y="20" as="offset" />
          </mxGeometry>
        </mxCell>
        <mxCell id="yzDUC33ExW9YsqvO7kSv-3" value="" style="endArrow=none;html=1;rounded=0;" parent="1" edge="1">
          <mxGeometry width="50" height="50" relative="1" as="geometry">
            <mxPoint x="329.68" y="220" as="sourcePoint" />
            <mxPoint x="329.68" y="150" as="targetPoint" />
          </mxGeometry>
        </mxCell>
        <mxCell id="pJLcRDhTVyEQ74yFAD_t-8" value="&lt;font style=&quot;font-size: 13px;&quot;&gt;V&lt;/font&gt;&lt;font style=&quot;font-size: 9px;&quot;&gt;R&lt;/font&gt;" style="edgeLabel;html=1;align=center;verticalAlign=middle;resizable=0;points=[];" vertex="1" connectable="0" parent="yzDUC33ExW9YsqvO7kSv-3">
          <mxGeometry x="0.7453" y="1" relative="1" as="geometry">
            <mxPoint y="-19" as="offset" />
          </mxGeometry>
        </mxCell>
        <mxCell id="yzDUC33ExW9YsqvO7kSv-4" value="" style="endArrow=none;html=1;rounded=0;" parent="1" edge="1">
          <mxGeometry width="50" height="50" relative="1" as="geometry">
            <mxPoint x="50" y="184" as="sourcePoint" />
            <mxPoint x="330" y="184" as="targetPoint" />
          </mxGeometry>
        </mxCell>
        <mxCell id="yzDUC33ExW9YsqvO7kSv-5" value="&lt;font style=&quot;font-size: 13px;&quot;&gt;R+jX&lt;/font&gt;" style="edgeLabel;html=1;align=center;verticalAlign=middle;resizable=0;points=[];" parent="yzDUC33ExW9YsqvO7kSv-4" vertex="1" connectable="0">
          <mxGeometry x="-0.0673" y="1" relative="1" as="geometry">
            <mxPoint y="15" as="offset" />
          </mxGeometry>
        </mxCell>
        <mxCell id="yzDUC33ExW9YsqvO7kSv-6" value="&lt;font style=&quot;font-size: 13px;&quot;&gt;Distribution Line&lt;/font&gt;" style="edgeLabel;html=1;align=center;verticalAlign=middle;resizable=0;points=[];" parent="yzDUC33ExW9YsqvO7kSv-4" vertex="1" connectable="0">
          <mxGeometry x="-0.1003" y="1" relative="1" as="geometry">
            <mxPoint y="-15" as="offset" />
          </mxGeometry>
        </mxCell>
        <mxCell id="yzDUC33ExW9YsqvO7kSv-10" value="" style="endArrow=classic;html=1;rounded=0;" parent="1" edge="1">
          <mxGeometry width="50" height="50" relative="1" as="geometry">
            <mxPoint x="330" y="200" as="sourcePoint" />
            <mxPoint x="295" y="240" as="targetPoint" />
            <Array as="points">
              <mxPoint x="295" y="200" />
            </Array>
          </mxGeometry>
        </mxCell>
        <mxCell id="yzDUC33ExW9YsqvO7kSv-11" value="P&lt;font style=&quot;font-size: 9px;&quot;&gt;L&lt;/font&gt;&lt;font&gt;+Q&lt;/font&gt;&lt;font style=&quot;font-size: 9px;&quot;&gt;L&lt;/font&gt;" style="edgeLabel;html=1;align=center;verticalAlign=middle;resizable=0;points=[];fontSize=13;" parent="yzDUC33ExW9YsqvO7kSv-10" vertex="1" connectable="0">
          <mxGeometry x="0.5766" y="-1" relative="1" as="geometry">
            <mxPoint y="25" as="offset" />
          </mxGeometry>
        </mxCell>
        <mxCell id="yzDUC33ExW9YsqvO7kSv-16" style="edgeStyle=orthogonalEdgeStyle;rounded=0;orthogonalLoop=1;jettySize=auto;html=1;exitX=0.5;exitY=0;exitDx=0;exitDy=0;" parent="1" edge="1">
          <mxGeometry relative="1" as="geometry">
            <mxPoint x="330" y="180" as="targetPoint" />
            <Array as="points">
              <mxPoint x="365" y="180" />
            </Array>
            <mxPoint x="365" y="209.99999999999994" as="sourcePoint" />
          </mxGeometry>
        </mxCell>
        <mxCell id="yzDUC33ExW9YsqvO7kSv-17" value="&lt;font style=&quot;&quot;&gt;&lt;span style=&quot;font-size: 13px;&quot;&gt;P&lt;/span&gt;&lt;font style=&quot;font-size: 9px;&quot;&gt;G&lt;/font&gt;&lt;span style=&quot;font-size: 13px;&quot;&gt;+Q&lt;/span&gt;&lt;font style=&quot;font-size: 9px;&quot;&gt;G&lt;/font&gt;&lt;/font&gt;" style="edgeLabel;html=1;align=center;verticalAlign=middle;resizable=0;points=[];" parent="yzDUC33ExW9YsqvO7kSv-16" vertex="1" connectable="0">
          <mxGeometry x="0.0244" y="-1" relative="1" as="geometry">
            <mxPoint x="-1" y="-9" as="offset" />
          </mxGeometry>
        </mxCell>
        <mxCell id="yzDUC33ExW9YsqvO7kSv-12" value="~" style="ellipse;whiteSpace=wrap;html=1;aspect=fixed;" parent="1" vertex="1">
          <mxGeometry x="360" y="210" width="10" height="10" as="geometry" />
        </mxCell>
        <mxCell id="yzDUC33ExW9YsqvO7kSv-13" value="&lt;font style=&quot;font-size: 9px;&quot;&gt;&lt;b&gt;DG&lt;/b&gt;&lt;/font&gt;" style="text;html=1;align=center;verticalAlign=middle;resizable=0;points=[];autosize=1;strokeColor=none;fillColor=none;" parent="1" vertex="1">
          <mxGeometry x="360" y="210" width="40" height="30" as="geometry" />
        </mxCell>
      </root>
    </mxGraphModel>
  </diagram>
</mxfile>
